<svg xmlns="http://www.w3.org/2000/svg" viewBox="0 0 120 120" role="img" aria-labelledby="title desc">
  <title id="title">Elite Print</title>
  <desc id="desc">Flexible pouch icon with print bars for Elite Print</desc>
  <defs>
    <linearGradient id="g" x1="0%" y1="0%" x2="100%" y2="100%">
      <stop offset="0%" style="stop-color:#f0d060"/>
      <stop offset="50%" style="stop-color:#c9a227"/>
      <stop offset="100%" style="stop-color:#8a7018"/>
    </linearGradient>
    <filter id="s" x="-20%" y="-20%" width="140%" height="140%">
      <feDropShadow dx="0" dy="2" stdDeviation="2" flood-color="#000" flood-opacity="0.35"/>
    </filter>
  </defs>
  <path fill="#141414" stroke="url(#g)" stroke-width="2" filter="url(#s)"
        d="M24 38 L60 22 L96 38 L96 78 Q96 92 82 96 L38 96 Q24 92 24 78 Z"/>
  <path fill="none" stroke="url(#g)" stroke-width="1.5" stroke-opacity="0.6" d="M32 44 L88 44"/>
  <!-- Stylised E + P using rectangles -->
  <rect x="38" y="50" width="3" height="22" rx="0.5" fill="url(#g)"/>
  <rect x="38" y="50" width="14" height="3" rx="0.5" fill="url(#g)"/>
  <rect x="38" y="59" width="11" height="3" rx="0.5" fill="url(#g)"/>
  <rect x="38" y="69" width="14" height="3" rx="0.5" fill="url(#g)"/>
  <rect x="58" y="50" width="3" height="22" rx="0.5" fill="url(#g)"/>
  <rect x="58" y="50" width="16" height="3" rx="0.5" fill="url(#g)"/>
  <rect x="58" y="59" width="16" height="3" rx="0.5" fill="url(#g)"/>
  <rect x="71" y="50" width="3" height="11" rx="0.5" fill="url(#g)"/>
  <circle cx="42" cy="54" r="2" fill="#e8c547" opacity="0.9"/>
  <circle cx="60" cy="50" r="2" fill="#e8c547" opacity="0.7"/>
  <circle cx="78" cy="54" r="2" fill="#e8c547" opacity="0.9"/>
</svg>
